<svg width="274" height="35" viewBox="0 0 274 35" fill="none" xmlns="http://www.w3.org/2000/svg">
<rect y="7" width="274" height="4" rx="2" fill="#737B98"/>
<rect y="7" width="148" height="4" rx="2" fill="#0BD88F"/>
<circle cx="144.244" cy="9" r="7" fill="#0BD88F"/>
<path d="M4.3402 32.1392C3.71709 32.1392 3.15696 32.0199 2.6598 31.7812C2.16596 31.5393 1.77154 31.2079 1.47656 30.7869C1.18158 30.366 1.02415 29.8854 1.00426 29.3452H2.49574C2.5322 29.7827 2.72609 30.1423 3.07741 30.424C3.42874 30.7057 3.84967 30.8466 4.3402 30.8466C4.7313 30.8466 5.07765 30.7571 5.37926 30.5781C5.68419 30.3958 5.92282 30.1456 6.09517 29.8274C6.27083 29.5092 6.35866 29.1463 6.35866 28.7386C6.35866 28.3243 6.26918 27.9548 6.0902 27.63C5.91122 27.3052 5.6643 27.05 5.34943 26.8643C5.03788 26.6787 4.67992 26.5843 4.27557 26.581C3.96733 26.581 3.65743 26.634 3.34588 26.7401C3.03433 26.8461 2.78243 26.9853 2.5902 27.1577L1.18324 26.9489L1.75497 21.8182H7.35298V23.1357H3.03267L2.70952 25.9844H2.76918C2.96804 25.7921 3.23153 25.6314 3.55966 25.5021C3.8911 25.3729 4.24574 25.3082 4.62358 25.3082C5.24337 25.3082 5.79522 25.4557 6.27912 25.7507C6.76634 26.0457 7.14915 26.4484 7.42756 26.9588C7.70928 27.4659 7.84848 28.0492 7.84517 28.7088C7.84848 29.3684 7.69934 29.9567 7.39773 30.4737C7.09943 30.9908 6.68513 31.3984 6.15483 31.6967C5.62784 31.9917 5.02296 32.1392 4.3402 32.1392Z" fill="#737B98"/>
<path d="M257.356 32V30.8864L260.802 27.3168C261.17 26.929 261.473 26.5893 261.711 26.2976C261.953 26.0026 262.134 25.7225 262.253 25.4574C262.373 25.1922 262.432 24.9105 262.432 24.6122C262.432 24.2741 262.353 23.9825 262.194 23.7372C262.035 23.4886 261.818 23.2981 261.542 23.1655C261.267 23.0296 260.957 22.9616 260.613 22.9616C260.248 22.9616 259.93 23.0362 259.658 23.1854C259.386 23.3345 259.178 23.545 259.032 23.8168C258.886 24.0885 258.813 24.4067 258.813 24.7713H257.346C257.346 24.1515 257.489 23.6096 257.774 23.1456C258.059 22.6816 258.45 22.322 258.947 22.0668C259.444 21.8082 260.01 21.679 260.643 21.679C261.282 21.679 261.846 21.8066 262.333 22.0618C262.823 22.3137 263.206 22.6584 263.481 23.0959C263.756 23.5301 263.894 24.0206 263.894 24.5675C263.894 24.9453 263.823 25.3149 263.68 25.6761C263.541 26.0374 263.297 26.4401 262.949 26.8842C262.601 27.325 262.117 27.8603 261.498 28.4901L259.474 30.608V30.6825H264.058V32H257.356ZM269.487 32.169C268.702 32.1657 268.03 31.9586 267.474 31.5476C266.917 31.1366 266.491 30.5384 266.196 29.7528C265.901 28.9673 265.753 28.0211 265.753 26.9141C265.753 25.8104 265.901 24.8674 266.196 24.0852C266.494 23.303 266.922 22.7064 267.479 22.2955C268.039 21.8845 268.708 21.679 269.487 21.679C270.266 21.679 270.934 21.8861 271.491 22.3004C272.047 22.7114 272.473 23.308 272.768 24.0902C273.067 24.8691 273.216 25.8104 273.216 26.9141C273.216 28.0244 273.068 28.9723 272.773 29.7578C272.478 30.54 272.052 31.1383 271.496 31.5526C270.939 31.9635 270.269 32.169 269.487 32.169ZM269.487 30.8416C270.176 30.8416 270.715 30.5052 271.103 29.8324C271.494 29.1596 271.689 28.1868 271.689 26.9141C271.689 26.0689 271.6 25.3546 271.421 24.7713C271.245 24.1847 270.992 23.7405 270.66 23.4389C270.332 23.134 269.941 22.9815 269.487 22.9815C268.801 22.9815 268.262 23.3196 267.871 23.9957C267.48 24.6719 267.283 25.6446 267.28 26.9141C267.28 27.7625 267.367 28.4801 267.543 29.0668C267.722 29.6501 267.976 30.0926 268.304 30.3942C268.632 30.6925 269.026 30.8416 269.487 30.8416Z" fill="#737B98"/>
</svg>
